<!--
SPDX-FileCopyrightText: 2020 Kerstin Humm <mail@erictapen.name>
SPDX-License-Identifier: GPL-3.0-or-later
-->

<?xml version="1.0" encoding="UTF-8"?>
<!DOCTYPE svg PUBLIC "-//W3C//DTD SVG 1.1//EN"
    "http://www.w3.org/Graphics/SVG/1.1/DTD/svg11.dtd"><svg xmlns="http://www.w3.org/2000/svg" height="160mm" width="195mm" xmlns:xlink="http://www.w3.org/1999/xlink" version="1.11.2"><g transform="translate(50.0000 70.0000)"><text style="font-weight: bold;" font-size="6.0mm">Weight distribution of things on my desk</text><g transform="translate(40.0000 190.0000)"><g transform="translate(0.0000 -140.0000)"><text style="text-anchor: end; text-align: end;" font-size="2.0mm" x="-1.5mm" y="1.1mm">10mg</text><rect height="0.2mm" width="1.5mm"/></g><g transform="translate(0.0000 -70.0000)"><text style="text-anchor: end; text-align: end;" font-size="2.0mm" x="-1.5mm" y="1.1mm">100mg</text><rect height="0.2mm" width="1.5mm"/></g><g transform="translate(0.0000 0.0000)"><text style="text-anchor: end; text-align: end;" font-size="2.0mm" x="-1.5mm" y="1.1mm">1g</text><rect height="0.2mm" width="1.5mm"/></g><g transform="translate(0.0000 70.0000)"><text style="text-anchor: end; text-align: end;" font-size="2.0mm" x="-1.5mm" y="1.1mm">10g</text><rect height="0.2mm" width="1.5mm"/></g><g transform="translate(0.0000 140.0000)"><text style="text-anchor: end; text-align: end;" font-size="2.0mm" x="-1.5mm" y="1.1mm">100g</text><rect height="0.2mm" width="1.5mm"/></g><g transform="translate(0.0000 210.0000)"><text style="text-anchor: end; text-align: end;" font-size="2.0mm" x="-1.5mm" y="1.1mm">1kg</text><rect height="0.2mm" width="1.5mm"/></g><g transform="translate(0.0000 280.0000)"><text style="text-anchor: end; text-align: end;" font-size="2.0mm" x="-1.5mm" y="1.1mm">10kg</text><rect height="0.2mm" width="1.5mm"/></g><g transform="translate(0.0000 -91.0721)"><circle r="0.5mm" cx="5.0mm"/><text font-size="2.0mm" x="13.0mm" y="1.0mm">Dust particle. <tspan style="font-style:italic;">~50mg</tspan></text></g><g transform="translate(0.0000 -18.1746)"><circle r="0.5mm" cx="5.0mm"/><text font-size="2.0mm" x="13.0mm" y="1.0mm">Crumpled recipe for cookies. <tspan style="font-style:italic;">550mg</tspan></text></g><g transform="translate(0.0000 -14.5326)"><circle r="0.5mm" cx="6.0mm"/><text font-size="2.0mm" x="53.0mm" y="1.0mm">Body piercing in plastic bag. <tspan style="font-style:italic;">620mg</tspan></text></g><g transform="translate(0.0000 -10.8431)"><circle r="0.5mm" cx="7.0mm"/><text font-size="2.0mm" x="96.0mm" y="1.0mm">Sticker 50mm×50mm. <tspan style="font-style:italic;">700mg</tspan></text></g><g transform="translate(0.0000 7.9760)"><circle r="0.5mm" cx="5.0mm"/><text font-size="2.0mm" x="13.0mm" y="1.0mm">Sticker 84mm×55mm. <tspan style="font-style:italic;">1.30g</tspan></text></g><g transform="translate(0.0000 27.8558)"><circle r="0.5mm" cx="7.0mm"/><text font-size="2.0mm" x="99.0mm" y="1.0mm">WiFi adapter. <tspan style="font-style:italic;">2.50g</tspan></text></g><g transform="translate(0.0000 30.1955)"><circle r="0.5mm" cx="6.0mm"/><text font-size="2.0mm" x="48.0mm" y="1.0mm">Easter greetings card from my mother. <tspan style="font-style:italic;">2.70g</tspan></text></g><g transform="translate(0.0000 32.3679)"><circle r="0.5mm" cx="5.0mm"/><text font-size="2.0mm" x="13.0mm" y="1.0mm">Protective mask. <tspan style="font-style:italic;">2.90g</tspan></text></g><g transform="translate(0.0000 45.0417)"><circle r="0.5mm" cx="5.0mm"/><text font-size="2.0mm" x="13.0mm" y="1.0mm">Zine. <tspan style="font-style:italic;">4.40g</tspan></text></g><g transform="translate(0.0000 50.1202)"><circle r="0.5mm" cx="6.0mm"/><text font-size="2.0mm" x="31.0mm" y="1.0mm">Cheat sheet for keyboard layout. <tspan style="font-style:italic;">5.20g</tspan></text></g><g transform="translate(0.0000 52.3732)"><circle r="0.5mm" cx="7.0mm"/><text font-size="2.0mm" x="72.0mm" y="1.0mm">Easter greetings card from my father. <tspan style="font-style:italic;">5.60g</tspan></text></g><g transform="translate(0.0000 66.7970)"><circle r="0.5mm" cx="5.0mm"/><text font-size="2.0mm" x="13.0mm" y="1.0mm">Ballpoint. <tspan style="font-style:italic;">9.00g</tspan></text></g><g transform="translate(0.0000 68.2480)"><circle r="0.5mm" cx="8.0mm"/><text font-size="2.0mm" x="116.0mm" y="1.0mm">Cover of a precision balance, red. <tspan style="font-style:italic;">9.44g</tspan></text></g><g transform="translate(0.0000 70.0000)"><circle r="0.5mm" cx="7.0mm"/><text font-size="2.0mm" x="70.0mm" y="1.0mm">Cardboard box for RaspberryPi. <tspan style="font-style:italic;">10.0g</tspan></text></g><g transform="translate(0.0000 68.4406)"><circle r="0.5mm" cx="6.0mm"/><text font-size="2.0mm" x="33.0mm" y="1.0mm">Letter about tax return. <tspan style="font-style:italic;">9.50g</tspan></text></g><g transform="translate(0.0000 76.2934)"><circle r="0.5mm" cx="5.0mm"/><text font-size="2.0mm" x="13.0mm" y="1.0mm">Square. <tspan style="font-style:italic;">12.3g</tspan></text></g><g transform="translate(0.0000 88.5372)"><circle r="0.5mm" cx="5.0mm"/><text font-size="2.0mm" x="13.0mm" y="1.0mm">Lipstick. <tspan style="font-style:italic;">18.4g</tspan></text></g><g transform="translate(0.0000 90.4579)"><circle r="0.5mm" cx="6.0mm"/><text font-size="2.0mm" x="33.0mm" y="1.0mm">Head set. <tspan style="font-style:italic;">19.6g</tspan></text></g><g transform="translate(0.0000 91.2237)"><circle r="0.5mm" cx="7.0mm"/><text font-size="2.0mm" x="59.0mm" y="1.0mm">Nail scissors. <tspan style="font-style:italic;">20.1g</tspan></text></g><g transform="translate(0.0000 98.3384)"><circle r="0.5mm" cx="8.0mm"/><text font-size="2.0mm" x="84.0mm" y="1.0mm">USB cable for keyboard. <tspan style="font-style:italic;">25.4g</tspan></text></g><g transform="translate(0.0000 104.8817)"><circle r="0.5mm" cx="5.0mm"/><text font-size="2.0mm" x="13.0mm" y="1.0mm">Needled felt mammoth. <tspan style="font-style:italic;">31.5g</tspan></text></g><g transform="translate(0.0000 110.8239)"><circle r="0.5mm" cx="6.0mm"/><text font-size="2.0mm" x="47.0mm" y="1.0mm">USB extension cord. <tspan style="font-style:italic;">38.3g</tspan></text></g><g transform="translate(0.0000 114.1300)"><circle r="0.5mm" cx="5.0mm"/><text font-size="2.0mm" x="13.0mm" y="1.0mm">RaspberryPi 3B+. <tspan style="font-style:italic;">42.7g</tspan></text></g><g transform="translate(0.0000 120.5268)"><circle r="0.5mm" cx="6.0mm"/><text font-size="2.0mm" x="41.0mm" y="1.0mm">HDMI cable. <tspan style="font-style:italic;">52.7g</tspan></text></g><g transform="translate(0.0000 126.5700)"><circle r="0.5mm" cx="5.0mm"/><text font-size="2.0mm" x="13.0mm" y="1.0mm">Precision balance, red. <tspan style="font-style:italic;">64.3g</tspan></text></g><g transform="translate(0.0000 132.9108)"><circle r="0.5mm" cx="7.0mm"/><text font-size="2.0mm" x="64.0mm" y="1.0mm">Scissors. <tspan style="font-style:italic;">79.2g</tspan></text></g><g transform="translate(0.0000 133.2163)"><circle r="0.5mm" cx="6.0mm"/><text font-size="2.0mm" x="46.0mm" y="1.0mm">VGA cable. <tspan style="font-style:italic;">80.0g</tspan></text></g><g transform="translate(0.0000 144.4333)"><circle r="0.5mm" cx="5.0mm"/><text font-size="2.0mm" x="13.0mm" y="1.0mm">Duct tape. <tspan style="font-style:italic;">116g</tspan></text></g><g transform="translate(0.0000 148.1393)"><circle r="0.5mm" cx="6.0mm"/><text font-size="2.0mm" x="34.0mm" y="1.0mm">Roll of toilet paper. <tspan style="font-style:italic;">131g</tspan></text></g><g transform="translate(0.0000 150.2290)"><circle r="0.5mm" cx="7.0mm"/><text font-size="2.0mm" x="68.0mm" y="1.0mm">Computer mouse. <tspan style="font-style:italic;">140g</tspan></text></g><g transform="translate(0.0000 157.8691)"><circle r="0.5mm" cx="5.0mm"/><text font-size="2.0mm" x="13.0mm" y="1.0mm">Power adaptor for a monitor. <tspan style="font-style:italic;">180g</tspan></text></g><g transform="translate(0.0000 161.0721)"><circle r="0.5mm" cx="6.0mm"/><text font-size="2.0mm" x="53.0mm" y="1.0mm">Power cord. <tspan style="font-style:italic;">200g</tspan></text></g><g transform="translate(0.0000 166.6148)"><circle r="0.5mm" cx="5.0mm"/><text font-size="2.0mm" x="13.0mm" y="1.0mm">Ethernet switch. <tspan style="font-style:italic;">240g</tspan></text></g><g transform="translate(0.0000 180.5848)"><circle r="0.5mm" cx="5.0mm"/><text font-size="2.0mm" x="13.0mm" y="1.0mm">Book of friendship from my flat mate, still missing a page about me. <tspan style="font-style:italic;">380g</tspan></text></g><g transform="translate(0.0000 182.8949)"><circle r="0.5mm" cx="6.0mm"/><text font-size="2.0mm" x="93.0mm" y="1.0mm">Notebook. <tspan style="font-style:italic;">410g</tspan></text></g><g transform="translate(0.0000 185.7249)"><circle r="0.5mm" cx="7.0mm"/><text font-size="2.0mm" x="118.0mm" y="1.0mm">Water glass, near empty. <tspan style="font-style:italic;">450g</tspan></text></g><g transform="translate(0.0000 190.1202)"><circle r="0.5mm" cx="5.0mm"/><text font-size="2.0mm" x="13.0mm" y="1.0mm">Water glass, half-full. <tspan style="font-style:italic;">520g</tspan></text></g><g transform="translate(0.0000 198.2756)"><circle r="0.5mm" cx="6.0mm"/><text font-size="2.0mm" x="44.0mm" y="1.0mm">Keyboard. <tspan style="font-style:italic;">680g</tspan></text></g><g transform="translate(0.0000 223.3232)"><circle r="0.5mm" cx="5.0mm"/><text font-size="2.0mm" x="13.0mm" y="1.0mm">Small server, used as a monitor stand. <tspan style="font-style:italic;">1.55kg</tspan></text></g><g transform="translate(0.0000 226.1314)"><circle r="0.5mm" cx="6.0mm"/><text font-size="2.0mm" x="65.0mm" y="1.0mm">Book about Bauhaus, used as a monitor stand. <tspan style="font-style:italic;">1.70kg</tspan></text></g><g transform="translate(0.0000 249.7741)"><circle r="0.5mm" cx="5.0mm"/><text font-size="2.0mm" x="13.0mm" y="1.0mm">1st monitor. <tspan style="font-style:italic;">3.70kg</tspan></text></g><g transform="translate(0.0000 255.0417)"><circle r="0.5mm" cx="6.0mm"/><text font-size="2.0mm" x="37.0mm" y="1.0mm">2nd monitor. <tspan style="font-style:italic;">4.40kg</tspan></text></g></g></g></svg>
